<svg width="87" height="82" viewBox="0 0 87 82" fill="none" xmlns="http://www.w3.org/2000/svg">
<g clip-path="url(#clip0_757_16030)">
<path d="M53.0001 5.57654C53.625 3.41898 55.9006 2.16601 57.9758 3.02733C65.4718 6.13859 71.8989 11.4973 76.3706 18.4348C81.5891 26.5309 83.8043 36.2495 82.6204 45.8531C81.4365 55.4567 76.9304 64.3193 69.9077 70.8566C63.8853 76.4628 56.3489 80.0456 48.3223 81.1781C46.1066 81.4907 44.2207 79.7241 44.1394 77.4887C44.0582 75.2571 45.809 73.408 48.0123 73.0405C54.1515 72.0166 59.8984 69.1985 64.5286 64.8882C70.1575 59.6482 73.7694 52.5446 74.7184 44.8469C75.6674 37.1492 73.8918 29.3593 69.7089 22.87C66.2601 17.5194 61.3602 13.3405 55.6422 10.8106C53.6134 9.913 52.3832 7.70695 53.0001 5.57654Z" fill="black"/>
<path d="M28.0486 75.362C27.3075 77.4836 24.965 78.6105 22.9397 77.635C15.6235 74.1105 9.49585 68.4017 5.40557 61.2257C0.631865 52.8509 -1.05552 43.0234 0.645041 33.5004C2.3456 23.9772 7.32326 15.3791 14.6882 9.24314C21.0059 3.97968 28.7269 0.822182 36.8049 0.14004C39.0319 -0.0480069 40.8151 1.81664 40.7757 4.05035C40.7363 6.28595 38.8839 8.03916 36.6606 8.28417C30.4783 8.96549 24.5909 11.4585 19.737 15.5025C13.8337 20.4207 9.8439 27.3123 8.48083 34.9456C7.11776 42.5788 8.47027 50.4559 12.2966 57.1687C15.4531 62.7065 20.1236 67.1543 25.7005 69.9988C27.6737 71.0053 28.7791 73.2714 28.0486 75.362Z" fill="black"/>
<path d="M25.415 10.0283V73.5426" stroke="black" stroke-width="0.7"/>
<path d="M43.5804 14.4765L44.1904 12.6444C44.5774 11.4817 45.6657 10.6973 46.8914 10.6973C47.1245 10.6973 47.3568 10.7259 47.5829 10.7825L48.6697 11.0545C49.3159 11.2163 49.9294 11.488 50.4835 11.8578C51.1209 12.2833 51.6678 12.8308 52.0925 13.4687L52.1741 13.5913C52.4906 14.0666 52.7424 14.5821 52.9228 15.1239C53.1408 15.7788 53.2519 16.4645 53.2519 17.1547V18.004C53.2519 18.5963 53.1854 19.1867 53.0536 19.764C52.7886 20.9251 52.2649 22.0113 51.5214 22.9419L51.3655 23.137C50.6288 24.0591 49.7005 24.8104 48.6449 25.3388C48.1121 25.6055 47.5518 25.8131 46.9738 25.9578L45.4396 26.3418L43.3888 26.7525C42.7556 26.8793 42.1422 27.09 41.5649 27.3791L40.6163 27.854C40.2314 28.0466 39.8068 28.1469 39.3763 28.1469C38.6412 28.1469 37.9362 28.4393 37.4168 28.9592L37.3641 29.012C37.1403 29.2361 36.9541 29.4948 36.8125 29.7782L36.672 30.0596C36.5098 30.3846 36.4253 30.7428 36.4253 31.1061C36.4253 31.8888 36.8163 32.62 37.4675 33.0546L37.8667 33.3211C38.1066 33.4813 38.3667 33.6086 38.6403 33.6999L40.0309 34.1641C42.4299 34.9647 44.8961 35.5477 47.3997 35.9057L47.8434 35.9692L52.0501 37.1726L56.2567 38.376C57.816 38.7664 59.2039 39.6579 60.207 40.9133L60.4907 41.2684C60.872 41.7457 61.202 42.262 61.4749 42.8085L61.8308 43.5212C62.5123 44.8861 62.8672 46.3908 62.8672 47.9164C62.8672 49.1664 62.6289 50.4051 62.1652 51.566L61.6653 52.8172L61.5222 53.2472C60.8259 55.3387 59.6524 57.2395 58.0944 58.7995L57.9787 58.9154C57.2342 59.6609 56.401 60.3122 55.4979 60.8547C54.4072 61.5099 53.2256 62 51.9912 62.3089L50.285 62.736C49.4616 62.9421 48.6161 63.0464 47.7672 63.0464H47.1112C46.0104 63.0464 44.9234 63.2904 43.9284 63.7609L43.7632 63.8389C43.2804 64.0673 42.8297 64.3584 42.4231 64.7046C41.7914 65.2425 41.2769 65.9042 40.9112 66.6489L40.2038 68.0894C39.7057 69.1038 38.8492 69.8978 37.7999 70.318C36.9063 70.676 35.9225 70.7428 34.9888 70.509L34.6305 70.4194C34.2257 70.318 33.8332 70.1727 33.4601 69.9858L32.8109 69.6609C32.0289 69.2694 31.3627 68.6806 30.8782 67.9528C30.5719 67.493 30.3437 66.9858 30.2027 66.4517L30.0427 65.8457C29.6396 64.3196 29.6548 62.7133 30.0866 61.195L30.4157 60.0377L30.5233 59.6668C30.6827 59.1173 30.9495 58.6048 31.3084 58.1592C31.899 57.426 32.7129 56.9054 33.6264 56.6768L34.1586 56.5436C34.4673 56.4664 34.7693 56.3645 35.0617 56.239L38.8291 54.6224L43.0358 53.4189L43.8761 53.2086C44.882 52.9568 45.758 52.339 46.3326 51.4759L46.4536 51.2943C46.5783 51.1069 46.6775 50.9039 46.7486 50.6905C47.0513 49.781 46.8147 48.7787 46.1373 48.1005L45.8898 47.8525C45.5927 47.5552 45.2384 47.3212 44.8481 47.165L43.6315 46.6777C42.8373 46.3596 42.0038 46.1504 41.1535 46.0558L37.0262 45.5966L34.0215 44.9949L30.4157 43.7915L28.2849 43.0804C27.3093 42.7547 26.3991 42.259 25.5965 41.616C24.4224 40.6755 23.5119 39.447 22.9539 38.0503L22.6033 37.1726L22.286 36.3785C21.7016 34.9156 21.4014 33.3549 21.4014 31.7796V31.6694C21.4014 30.9275 21.4746 30.1873 21.62 29.4598C21.873 28.1929 22.3418 26.9788 23.006 25.8704L23.0559 25.7872C23.5535 24.9566 24.1512 24.1903 24.8355 23.5051L25.0617 23.2786C25.8232 22.5161 26.683 21.8586 27.6183 21.3235C29.4514 20.2747 31.5268 19.723 33.6389 19.723H35.1213C37.1378 19.723 39.0998 19.0684 40.7121 17.8577L41.6565 17.1485C42.5547 16.474 43.2258 15.5419 43.5804 14.4765Z" fill="black" stroke="black"/>
<path d="M6.68848 20.0566L8.10931 23.395C8.61981 24.5945 9.25769 25.7358 10.012 26.799L10.9028 28.055C11.0114 28.2081 11.135 28.3499 11.2717 28.4784C11.8389 29.0114 12.1605 29.755 12.1605 30.5331V41.6566V42.1082C12.1605 43.8219 12.6931 45.493 13.6846 46.8909C14.1257 47.5126 14.4785 48.1923 14.7333 48.9106L15.0628 49.8397C15.3164 50.5547 15.6226 51.2499 15.9789 51.9197L16.5381 52.9708L17.6325 55.0279C18.3512 56.3787 18.7269 57.8852 18.7269 59.415V71.4851V73.5423" stroke="black" stroke-width="0.7"/>
<path d="M64.3559 74.9139L64.4819 71.2881C64.5271 69.9853 64.4324 68.6815 64.1992 67.399L63.9237 65.8842C63.8902 65.6996 63.8382 65.5188 63.7688 65.3445C63.4807 64.6215 63.504 63.8119 63.8335 63.1068L68.5427 53.0287L68.734 52.6195C69.4594 51.0669 69.6844 49.3273 69.3779 47.6413C69.2415 46.8915 69.2095 46.1264 69.2828 45.3678L69.3776 44.3867C69.4506 43.6315 69.4675 42.872 69.4282 42.1145L69.3666 40.9257L69.2459 38.5987C69.1667 37.0709 69.464 35.5471 70.1117 34.1609L75.2217 23.2252L76.0927 21.3613" stroke="black" stroke-width="0.7"/>
<path d="M32.1025 8.69164V62.1773M36.7841 7.35449V62.1773M40.7969 26.7431V35.0268C40.7969 37.0752 41.0213 39.1176 41.4657 41.1173C41.9103 43.117 42.1346 45.1593 42.1346 47.2078V57.4973M46.8162 24.0688V42.7887M50.829 22.063L52.49 28.7049C52.7197 29.6228 53.049 30.5128 53.4722 31.3592C54.3729 33.1598 54.8419 35.1455 54.8419 37.1587V40.783M59.5234 10.6973V72.2059" stroke="black" stroke-width="0.7"/>
</g>
<defs>
<clipPath id="clip0_757_16030">
<rect width="87" height="82" fill="white"/>
</clipPath>
</defs>
</svg>
